<svg width="100" height="100" viewBox="0 0 100 100" fill="none" xmlns="http://www.w3.org/2000/svg">
<path d="M54.1667 79.1667C54.1667 82.0833 54.7083 84.875 55.625 87.5H20.8333C18.6232 87.5 16.5036 86.622 14.9408 85.0592C13.378 83.4964 12.5 81.3768 12.5 79.1667V20.8333C12.5 16.25 16.25 12.5 20.8333 12.5H79.1667C81.3768 12.5 83.4964 13.378 85.0592 14.9408C86.622 16.5036 87.5 18.6232 87.5 20.8333V55.625C84.875 54.7083 82.0833 54.1667 79.1667 54.1667V20.8333H20.8333V79.1667H54.1667ZM58.1667 51.2083L46.7083 65.9583L38.5417 56.125L27.0833 70.8333H55.625C57.2917 66.1667 60.2917 62.125 64.1667 59.2083L58.1667 51.2083M83.3333 75V62.5H75V75H62.5V83.3333H75V95.8333H83.3333V83.3333H95.8333V75H83.3333Z" fill="#777"/>
</svg>
