<?xml version="1.0" encoding="iso-8859-1"?>
<!-- Generator: Adobe Illustrator 19.0.0, SVG Export Plug-In . SVG Version: 6.00 Build 0)  -->
<svg version="1.1" id="Layer_1" xmlns="http://www.w3.org/2000/svg" xmlns:xlink="http://www.w3.org/1999/xlink" x="0px" y="0px"
	 viewBox="0 0 512 512" style="enable-background:new 0 0 512 512;" xml:space="preserve">
<path style="fill:#4FC0E8;" d="M512,256.006C512,397.402,397.394,512.004,256.004,512C114.606,512.004,0,397.402,0,256.006
	C-0.007,114.61,114.606,0,256.004,0C397.394,0,512,114.614,512,256.006z"/>
<path style="fill:#3DAED9;" d="M501.432,328.826L260.998,88.393c-2.762-2.762-7.235-2.762-9.998,0l-70.7,70.7
	c-2.762,2.762-2.762,7.235,0,9.998c0.29,0.29,0.657,0.423,0.98,0.652c0.228,0.323,67.623,67.927,67.648,67.951v163.85l-58.63-58.63
	c-2.762-2.762-7.235-2.762-9.998,0c-2.763,2.762-2.762,7.235,0,9.998l72.889,72.889l9.235,9.236l66.4,66.4
	C411.639,476.9,476.899,411.641,501.432,328.826z"/>
<path style="fill:#F4F6F9;" d="M321.7,342.911l-58.63,58.63V110.459l58.63,58.63c1.381,1.381,3.189,2.071,4.998,2.071
	s3.618-0.69,4.998-2.071c2.762-2.762,2.762-7.235,0-9.997l-70.7-70.7c-2.762-2.762-7.235-2.762-9.997,0l-70.7,70.7
	c-2.762,2.762-2.762,7.235,0,9.997c2.762,2.762,7.235,2.762,9.997,0l58.63-58.63v291.083l-58.63-58.63
	c-2.762-2.762-7.235-2.762-9.997,0c-2.762,2.762-2.762,7.235,0,9.997l70.7,70.7c1.381,1.381,3.189,2.071,4.998,2.071
	s3.618-0.69,4.998-2.071l70.7-70.7c2.762-2.762,2.762-7.235,0-9.997C328.936,340.149,324.462,340.148,321.7,342.911z"/>
<g>
</g>
<g>
</g>
<g>
</g>
<g>
</g>
<g>
</g>
<g>
</g>
<g>
</g>
<g>
</g>
<g>
</g>
<g>
</g>
<g>
</g>
<g>
</g>
<g>
</g>
<g>
</g>
<g>
</g>
</svg>
