<svg width="100" height="100" viewBox="0 0 100 100" fill="none" xmlns="http://www.w3.org/2000/svg">
<path d="M69.6625 82.3L66.9959 60.95C66.618 57.9259 65.1483 55.1441 62.8632 53.1276C60.5782 51.1111 57.6351 49.9988 54.5875 50H45.4042C42.358 50.0009 39.417 51.114 37.1337 53.1303C34.8504 55.1467 33.3819 57.9274 33.0042 60.95L30.3334 82.3C30.1868 83.473 30.2914 84.6637 30.6403 85.7931C30.9893 86.9225 31.5745 87.9648 32.3571 88.8507C33.1398 89.7366 34.1019 90.4459 35.1797 90.9314C36.2575 91.4169 37.4263 91.6675 38.6084 91.6667H61.3917C62.5734 91.6669 63.7417 91.4158 64.819 90.9301C65.8963 90.4443 66.8579 89.735 67.6401 88.8491C68.4223 87.9633 69.0072 86.9213 69.3558 85.7921C69.7045 84.663 69.8091 83.4726 69.6625 82.3V82.3Z" stroke="#777" stroke-width="8.33333" stroke-linecap="round" stroke-linejoin="round"/>
<path d="M50 33.3334C56.9036 33.3334 62.5 27.7369 62.5 20.8334C62.5 13.9298 56.9036 8.33337 50 8.33337C43.0964 8.33337 37.5 13.9298 37.5 20.8334C37.5 27.7369 43.0964 33.3334 50 33.3334Z" stroke="#777" stroke-width="8.33333"/>
<path d="M16.6668 45.8334C21.2692 45.8334 25.0002 42.1025 25.0002 37.5001C25.0002 32.8977 21.2692 29.1667 16.6668 29.1667C12.0645 29.1667 8.3335 32.8977 8.3335 37.5001C8.3335 42.1025 12.0645 45.8334 16.6668 45.8334Z" stroke="#777" stroke-width="8.33333"/>
<path d="M83.3333 45.8334C87.9357 45.8334 91.6667 42.1025 91.6667 37.5001C91.6667 32.8977 87.9357 29.1667 83.3333 29.1667C78.731 29.1667 75 32.8977 75 37.5001C75 42.1025 78.731 45.8334 83.3333 45.8334Z" stroke="#777" stroke-width="8.33333"/>
<path d="M16.6668 58.3334H15.3918C13.4191 58.3331 11.5103 59.0327 10.005 60.3076C8.49969 61.5825 7.49545 63.3501 7.17095 65.2959L5.78345 73.6292C5.58433 74.8231 5.6477 76.0461 5.96915 77.2131C6.2906 78.3801 6.86241 79.463 7.64481 80.3866C8.42721 81.3101 9.40142 82.0522 10.4997 82.5611C11.5979 83.07 12.7939 83.3335 14.0043 83.3334H29.1668M83.3334 58.3334H84.6084C86.5811 58.3331 88.4899 59.0327 89.9952 60.3076C91.5005 61.5825 92.5048 63.3501 92.8293 65.2959L94.2168 73.6292C94.4159 74.8231 94.3525 76.0461 94.0311 77.2131C93.7096 78.3801 93.1378 79.463 92.3554 80.3866C91.573 81.3101 90.5988 82.0522 89.5006 82.5611C88.4023 83.07 87.2064 83.3335 85.9959 83.3334H70.8334" stroke="#777" stroke-width="8.33333" stroke-linecap="round" stroke-linejoin="round"/>
</svg>
