<svg width="24" height="26" viewBox="0 0 24 26" fill="none" xmlns="http://www.w3.org/2000/svg">
<path d="M6.80249 10.7297L7.50782 12.0669C7.74888 12.5239 7.86941 12.7524 7.86941 13C7.86941 13.2475 7.74888 13.476 7.50782 13.9331L6.80249 15.2702C5.64407 17.4664 5.06485 18.5645 5.56367 19.0851C6.06249 19.6058 7.18434 19.074 9.42806 18.0106L16.1868 14.8072C17.839 14.0242 18.6651 13.6326 18.6651 13C18.6651 12.3673 17.839 11.9757 16.1868 11.1927L9.42806 7.9893C7.18434 6.92587 6.06249 6.39416 5.56367 6.91479C5.06485 7.43541 5.64407 8.5335 6.80249 10.7297Z" fill="white"/>
</svg>
