<svg width="24" height="24" viewBox="0 0 24 24" fill="none" xmlns="http://www.w3.org/2000/svg">
<path fill-rule="evenodd" clip-rule="evenodd" d="M9.93929 12.6465L7.69205 11.8974L7.69205 11.8974L7.69204 11.8974C5.33883 11.113 4.16223 10.7208 4.16223 10C4.16223 9.27924 5.33884 8.88704 7.69205 8.10264L16.2052 5.26491C17.861 4.71299 18.6889 4.43702 19.1259 4.87404C19.5629 5.31105 19.287 6.13895 18.735 7.79474L15.8973 16.3079L15.8973 16.3079L15.8973 16.3079C15.1129 18.6611 14.7207 19.8377 14 19.8377C13.2792 19.8377 12.887 18.6611 12.1026 16.3079L11.3535 14.0607L15.7071 9.70711C16.0976 9.31659 16.0976 8.68342 15.7071 8.2929C15.3165 7.90237 14.6834 7.90237 14.2928 8.2929L9.93929 12.6465Z" fill="white"/>
</svg>
